name analog
datacolumns 19
datarows 18
range 0.5660000000000001 0.5745
endheader
time	ground_force_vx	ground_force_vy	ground_force_vz	ground_force_px	ground_force_py	ground_force_pz	l_ground_force_vx	l_ground_force_vy	l_ground_force_vz	l_ground_force_px	l_ground_force_py	l_ground_force_pz	ground_torque_x	ground_torque_y	ground_torque_z	l_ground_torque_x	l_ground_torque_y	l_ground_torque_z
0.5660000000000001	-0.0	-0.0	-0.0	2.5294349193573	48.07171630859375	-377.4330749511719	-8.634103775024414	-39.565650939941406	-330.4122009277344	-0.0	-0.0	-0.0	-0.0	-0.0	-0.0	78166.1796875	24562.380859375	-5543.45166015625
0.5665	-0.0	-0.0	-0.0	2.498863458633423	48.75529861450195	-380.3786315917969	-8.574625968933105	-39.27408599853516	-330.3018798828125	-0.0	-0.0	-0.0	-0.0	-0.0	-0.0	78258.640625	23828.546875	-5444.5927734375
0.5670000000000001	-0.0	-0.0	-0.0	3.2419092655181885	49.497676849365234	-385.0826721191406	-8.664435386657715	-38.97999954223633	-328.892578125	-0.0	-0.0	-0.0	-0.0	-0.0	-0.0	77977.421875	23240.83203125	-5395.025390625
0.5675	-0.0	-0.0	-0.0	3.627375364303589	49.498382568359375	-388.144775390625	-8.368072509765625	-39.21669006347656	-328.1988525390625	-0.0	-0.0	-0.0	-0.0	-0.0	-0.0	78233.875	22811.5625	-5167.67138671875
0.5680000000000001	-0.0	-0.0	-0.0	4.222409248352051	49.82389831542969	-391.554443359375	-7.656778812408447	-38.478271484375	-327.14862060546875	-0.0	-0.0	-0.0	-0.0	-0.0	-0.0	77838.5390625	22267.873046875	-5008.57421875
0.5685	-0.0	-0.0	-0.0	4.8474955558776855	50.03108215332031	-393.21087646484375	-7.775737762451172	-38.389259338378906	-324.8293762207031	-0.0	-0.0	-0.0	-0.0	-0.0	-0.0	77657.5390625	21622.416015625	-4919.9013671875
0.5690000000000001	-0.0	-0.0	-0.0	5.501945972442627	50.1799430847168	-394.3829956054688	-7.094966888427734	-37.919864654541016	-323.31689453125	-0.0	-0.0	-0.0	-0.0	-0.0	-0.0	77058.1640625	21349.537109375	-4800.4052734375
0.5695	-0.0	-0.0	-0.0	5.740170478820801	50.29949951171875	-396.270751953125	-6.564598083496094	-37.71284484863281	-321.91778564453125	-0.0	-0.0	-0.0	-0.0	-0.0	-0.0	76825.03125	20776.779296875	-4622.3515625
0.5700000000000001	-0.0	-0.0	-0.0	5.679265975952148	50.53694152832031	-398.1522521972656	-6.240061283111572	-37.44839477539063	-320.1685791015625	-0.0	-0.0	-0.0	-0.0	-0.0	-0.0	76743.8984375	20058.255859375	-4443.5830078125
0.5705	-0.0	-0.0	-0.0	6.036633968353272	51.27963638305664	-399.2108459472656	-5.736082077026367	-37.153446197509766	-319.3564758300781	-0.0	-0.0	-0.0	-0.0	-0.0	-0.0	76903.1171875	19581.345703125	-4374.02001953125
0.5710000000000001	-0.0	-0.0	-0.0	5.590599536895752	51.66600036621094	-401.6832580566406	-5.825413703918457	-36.97720336914063	-317.2610168457031	-0.0	-0.0	-0.0	-0.0	-0.0	-0.0	76693.4453125	18974.357421875	-4324.82958984375
0.5715	-0.0	-0.0	-0.0	5.441886901855469	51.60655212402344	-402.62542724609375	-5.795448303222656	-36.8887939453125	-318.1938781738281	-0.0	-0.0	-0.0	-0.0	-0.0	-0.0	76601.3125	18510.994140625	-4116.955078125
0.5720000000000001	-0.0	-0.0	-0.0	5.798683166503906	51.9930534362793	-403.6846923828125	-5.381744384765625	-36.359130859375	-316.680419921875	-0.0	-0.0	-0.0	-0.0	-0.0	-0.0	76769.1015625	18107.083984375	-4086.921142578125
0.5725	-0.0	-0.0	-0.0	5.94728422164917	51.8736457824707	-406.0368957519531	-5.55918025970459	-35.82913589477539	-316.2155456542969	-0.0	-0.0	-0.0	-0.0	-0.0	-0.0	76651.4140625	17302.169921875	-3958.400146484375
0.5730000000000001	-0.0	-0.0	-0.0	6.630763053894043	51.81359100341797	-406.7464599609375	-4.820008754730225	-35.829280853271484	-316.2160949707031	-0.0	-0.0	-0.0	-0.0	-0.0	-0.0	76717.5390625	17032.8828125	-3671.168212890625
0.5735	-0.0	-0.0	-0.0	6.689931392669678	51.16128158569336	-407.3313903808594	-4.435803890228272	-35.44626235961914	-315.0514831542969	-0.0	-0.0	-0.0	-0.0	-0.0	-0.0	76519.21875	16530.51953125	-3571.931396484375
0.5740000000000001	-0.0	-0.0	-0.0	7.2559685707092285	51.0423698425293	-407.6902465820313	-4.317509651184082	-34.79874420166016	-313.305908203125	-0.0	-0.0	-0.0	-0.0	-0.0	-0.0	76505.0234375	16110.0849609375	-3324.47802734375
0.5745	-0.0	-0.0	-0.0	7.641494274139404	50.62737655639648	-405.9249267578125	-3.51869797706604	-34.829322814941406	-311.4432373046875	-0.0	-0.0	-0.0	-0.0	-0.0	-0.0	76416.34375	15764.9130859375	-3106.515625
